<svg width="398" height="312" viewBox="0 0 398 312" fill="none" xmlns="http://www.w3.org/2000/svg">
<path d="M64.6319 237.918C67.0653 235.486 70.3645 234.121 73.8045 234.121H391.202C396.984 234.121 399.879 241.112 395.788 245.199L333.071 307.866C330.638 310.298 327.339 311.664 323.899 311.664H6.50104C0.719038 311.664 -2.17542 304.672 1.9147 300.585L64.6319 237.918Z" fill="white"/>
<path d="M64.6319 3.7973C67.0653 1.36583 70.3645 0 73.8045 0H391.202C396.984 0 399.879 6.99175 395.788 11.0786L333.071 73.7458C330.638 76.1773 327.339 77.5431 323.899 77.5431H6.50104C0.719038 77.5431 -2.17542 70.5514 1.9147 66.4645L64.6319 3.7973Z" fill="white"/>
<path d="M333.071 120.112C330.638 117.68 327.339 116.315 323.899 116.315H6.50103C0.719037 116.315 -2.17542 123.306 1.9147 127.393L64.6319 190.06C67.0653 192.492 70.3645 193.858 73.8045 193.858H391.202C396.984 193.858 399.879 186.866 395.788 182.779L333.071 120.112Z" fill="white"/>
</svg>
